<svg width="53" height="53" viewBox="0 0 53 53" fill="none" xmlns="http://www.w3.org/2000/svg">
<circle cx="26.1658" cy="26.1658" r="26.1658" fill="#A4EDA4"/>
<g clip-path="url(#clip0_300_1170)">
<path d="M36.888 16.6667H15.1102C14.6977 16.6667 14.302 16.8306 14.0103 17.1224C13.7186 17.4141 13.5547 17.8097 13.5547 18.2223V33.7779C13.5547 34.1904 13.7186 34.5861 14.0103 34.8778C14.302 35.1695 14.6977 35.3334 15.1102 35.3334H36.888C37.3006 35.3334 37.6962 35.1695 37.988 34.8778C38.2797 34.5861 38.4436 34.1904 38.4436 33.7779V18.2223C38.4436 17.8097 38.2797 17.4141 37.988 17.1224C37.6962 16.8306 37.3006 16.6667 36.888 16.6667ZM35.6902 33.7779H16.4014L21.8458 28.1467L20.7258 27.0656L15.1102 32.8756V19.4045L24.778 29.0256C25.0695 29.3154 25.4637 29.478 25.8747 29.478C26.2856 29.478 26.6799 29.3154 26.9714 29.0256L36.888 19.1634V32.7745L31.1636 27.0501L30.0669 28.1467L35.6902 33.7779ZM16.1291 18.2223H35.628L25.8747 27.9212L16.1291 18.2223Z" fill="#4EAF4E"/>
</g>
<defs>
<clipPath id="clip0_300_1170">
<rect width="28" height="28" fill="white" transform="translate(12 12)"/>
</clipPath>
</defs>
</svg>
