<svg width="53" height="53" viewBox="0 0 53 53" fill="none" xmlns="http://www.w3.org/2000/svg">
<circle cx="26.1658" cy="26.1658" r="26.1658" fill="#D6D6D6"/>
<path d="M34.9783 23.4403C34.9783 31.7468 25.7489 38.2073 25.7489 38.2073C25.7489 38.2073 16.5195 31.7468 16.5195 23.4403C16.5195 20.9925 17.4919 18.645 19.2228 16.9142C20.9536 15.1833 23.3011 14.2109 25.7489 14.2109C28.1967 14.2109 30.5442 15.1833 32.2751 16.9142C34.0059 18.645 34.9783 20.9925 34.9783 23.4403Z" fill="#D6D6D6" stroke="#262523" stroke-width="2" stroke-linecap="round" stroke-linejoin="round"/>
<path d="M25.7503 27.1318C27.7892 27.1318 29.4421 25.4789 29.4421 23.44C29.4421 21.4011 27.7892 19.7483 25.7503 19.7483C23.7114 19.7483 22.0586 21.4011 22.0586 23.44C22.0586 25.4789 23.7114 27.1318 25.7503 27.1318Z" stroke="#262523" stroke-width="2" stroke-linecap="round" stroke-linejoin="round"/>
</svg>
