<svg width="53" height="53" viewBox="0 0 53 53" fill="none" xmlns="http://www.w3.org/2000/svg">
<circle cx="26.1658" cy="26.1658" r="26.1658" fill="#FFECBB"/>
<path d="M22.6124 25.1889C23.6502 27.332 25.3831 29.0605 27.5288 30.0928C27.6871 30.1677 27.8621 30.2001 28.0368 30.1869C28.2114 30.1736 28.3795 30.1151 28.5247 30.0171L31.6762 27.9119C31.8155 27.8174 31.9764 27.7598 32.1439 27.7444C32.3114 27.729 32.4802 27.7562 32.6343 27.8236L38.534 30.3575C38.7356 30.4414 38.9041 30.5893 39.0134 30.7783C39.1228 30.9674 39.1669 31.1872 39.1391 31.4038C38.9521 32.8633 38.2397 34.2046 37.1353 35.1768C36.0308 36.149 34.61 36.6855 33.1386 36.6858C28.5916 36.6858 24.2308 34.8795 21.0156 31.6643C17.8004 28.4491 15.9941 24.0884 15.9941 19.5414C15.9945 18.07 16.5309 16.6491 17.5031 15.5447C18.4753 14.4402 19.8167 13.7278 21.2761 13.5408C21.4928 13.513 21.7125 13.5572 21.9016 13.6665C22.0906 13.7758 22.2385 13.9443 22.3224 14.1459L24.8563 20.0582C24.9222 20.2099 24.9497 20.3755 24.9366 20.5404C24.9234 20.7053 24.8698 20.8644 24.7807 21.0037L22.6754 24.2057C22.5817 24.3505 22.5267 24.5169 22.5156 24.6891C22.5046 24.8612 22.5379 25.0333 22.6124 25.1889V25.1889Z" stroke="#DEAA27" stroke-width="2" stroke-linecap="round" stroke-linejoin="round"/>
</svg>
