<svg width="41" height="41" viewBox="0 0 41 41" fill="none" xmlns="http://www.w3.org/2000/svg">
<path d="M38.4949 20.3055C39.6467 19.2778 40.3774 17.8604 40.5463 16.3261C40.7153 14.7918 40.3105 13.2493 39.41 11.9957C38.5095 10.742 37.177 9.86597 35.669 9.53623C34.1611 9.20649 32.5845 9.44641 31.243 10.2098V6.24297C31.2415 4.97406 30.8539 3.73565 30.1316 2.69237C29.4093 1.64909 28.3866 0.850378 27.1994 0.402419C26.0122 -0.0455402 24.7167 -0.121524 23.4853 0.184571C22.2539 0.490665 21.1448 1.16434 20.3055 2.11602C19.2778 0.964285 17.8604 0.233558 16.3261 0.0645989C14.7918 -0.10436 13.2493 0.300402 11.9957 1.20091C10.742 2.10143 9.86597 3.43399 9.53623 4.9419C9.20649 6.44981 9.44641 8.0264 10.2098 9.36797H6.24297C4.97406 9.3694 3.73565 9.75703 2.69237 10.4793C1.64909 11.2016 0.850378 12.2243 0.402419 13.4116C-0.0455402 14.5988 -0.121524 15.8942 0.184571 17.1256C0.490665 18.3571 1.16434 19.4662 2.11602 20.3055C0.964285 21.3331 0.233558 22.7506 0.0645989 24.2849C-0.10436 25.8191 0.300402 27.3616 1.20091 28.6153C2.10143 29.8689 3.43399 30.745 4.9419 31.0747C6.44981 31.4045 8.0264 31.1645 9.36797 30.4012V34.368C9.3694 35.6369 9.75703 36.8753 10.4793 37.9186C11.2016 38.9619 12.2243 39.7606 13.4116 40.2085C14.5988 40.6565 15.8942 40.7325 17.1256 40.4264C18.3571 40.1203 19.4662 39.4466 20.3055 38.4949C21.3331 39.6467 22.7506 40.3774 24.2849 40.5463C25.8191 40.7153 27.3616 40.3105 28.6153 39.41C29.8689 38.5095 30.745 37.177 31.0747 35.669C31.4045 34.1611 31.1645 32.5845 30.4012 31.243H34.368C35.6369 31.2415 36.8753 30.8539 37.9186 30.1316C38.9619 29.4093 39.7606 28.3866 40.2085 27.1994C40.6565 26.0122 40.7325 24.7167 40.4264 23.4853C40.1203 22.2539 39.4466 21.1448 38.4949 20.3055ZM34.368 12.493C35.1968 12.493 35.9916 12.8222 36.5777 13.4083C37.1637 13.9943 37.493 14.7892 37.493 15.618C37.493 16.4468 37.1637 17.2416 36.5777 17.8277C35.9916 18.4137 35.1968 18.743 34.368 18.743H31.243V15.618C31.243 14.7892 31.5722 13.9943 32.1583 13.4083C32.7443 12.8222 33.5392 12.493 34.368 12.493ZM24.993 3.11797C25.8218 3.11797 26.6166 3.44721 27.2027 4.03326C27.7887 4.61931 28.118 5.41417 28.118 6.24297V15.618C28.118 16.4468 27.7887 17.2416 27.2027 17.8277C26.6166 18.4137 25.8218 18.743 24.993 18.743H21.868V6.24297C21.868 5.41417 22.1972 4.61931 22.7833 4.03326C23.3693 3.44721 24.1642 3.11797 24.993 3.11797ZM12.493 6.24297C12.493 5.41417 12.8222 4.61931 13.4083 4.03326C13.9943 3.44721 14.7892 3.11797 15.618 3.11797C16.4468 3.11797 17.2416 3.44721 17.8277 4.03326C18.4137 4.61931 18.743 5.41417 18.743 6.24297V9.36797H15.618C14.7892 9.36797 13.9943 9.03873 13.4083 8.45268C12.8222 7.86663 12.493 7.07177 12.493 6.24297ZM3.11797 15.618C3.11797 14.7892 3.44721 13.9943 4.03326 13.4083C4.61931 12.8222 5.41417 12.493 6.24297 12.493H15.618C16.4468 12.493 17.2416 12.8222 17.8277 13.4083C18.4137 13.9943 18.743 14.7892 18.743 15.618V18.743H6.24297C5.41417 18.743 4.61931 18.4137 4.03326 17.8277C3.44721 17.2416 3.11797 16.4468 3.11797 15.618ZM6.24297 28.118C5.41417 28.118 4.61931 27.7887 4.03326 27.2027C3.44721 26.6166 3.11797 25.8218 3.11797 24.993C3.11797 24.1642 3.44721 23.3693 4.03326 22.7833C4.61931 22.1972 5.41417 21.868 6.24297 21.868H9.36797V24.993C9.36797 25.8218 9.03873 26.6166 8.45268 27.2027C7.86663 27.7887 7.07177 28.118 6.24297 28.118ZM15.618 37.493C14.7892 37.493 13.9943 37.1637 13.4083 36.5777C12.8222 35.9916 12.493 35.1968 12.493 34.368V24.993C12.493 24.1642 12.8222 23.3693 13.4083 22.7833C13.9943 22.1972 14.7892 21.868 15.618 21.868H18.743V34.368C18.743 35.1968 18.4137 35.9916 17.8277 36.5777C17.2416 37.1637 16.4468 37.493 15.618 37.493ZM28.118 34.368C28.118 35.1968 27.7887 35.9916 27.2027 36.5777C26.6166 37.1637 25.8218 37.493 24.993 37.493C24.1642 37.493 23.3693 37.1637 22.7833 36.5777C22.1972 35.9916 21.868 35.1968 21.868 34.368V31.243H24.993C25.8218 31.243 26.6166 31.5722 27.2027 32.1583C27.7887 32.7443 28.118 33.5392 28.118 34.368ZM34.368 28.118H24.993C24.1642 28.118 23.3693 27.7887 22.7833 27.2027C22.1972 26.6166 21.868 25.8218 21.868 24.993V21.868H34.368C35.1968 21.868 35.9916 22.1972 36.5777 22.7833C37.1637 23.3693 37.493 24.1642 37.493 24.993C37.493 25.8218 37.1637 26.6166 36.5777 27.2027C35.9916 27.7887 35.1968 28.118 34.368 28.118Z" fill="white"/>
</svg>
