<?xml version="1.0" encoding="UTF-8"?>
<!DOCTYPE svg PUBLIC "-//W3C//DTD SVG 1.1//EN" "http://www.w3.org/Graphics/SVG/1.1/DTD/svg11.dtd">
<svg xmlns="http://www.w3.org/2000/svg" version="1.1" width="410px" height="328px" style="shape-rendering:geometricPrecision; text-rendering:geometricPrecision; image-rendering:optimizeQuality; fill-rule:evenodd; clip-rule:evenodd" xmlns:xlink="http://www.w3.org/1999/xlink">
<g><path style="opacity:1" fill="#242424" d="M 247.5,-0.5 C 252.167,-0.5 256.833,-0.5 261.5,-0.5C 268.867,0.217 276.2,1.217 283.5,2.5C 286.946,3.6874 290.613,4.35407 294.5,4.5C 299.573,6.43496 304.906,7.7683 310.5,8.5C 314.216,10.4053 318.216,11.7387 322.5,12.5C 323.78,13.9313 325.447,14.5979 327.5,14.5C 330.088,16.6246 333.088,17.9579 336.5,18.5C 338.153,18.6596 339.486,19.3263 340.5,20.5C 342.336,22.588 344.669,23.9213 347.5,24.5C 348.492,24.3284 349.158,24.6618 349.5,25.5C 349.973,26.9063 350.973,27.573 352.5,27.5C 352.973,28.9063 353.973,29.573 355.5,29.5C 355.973,30.9063 356.973,31.573 358.5,31.5C 359.262,33.2624 360.596,34.2624 362.5,34.5C 363.262,36.2624 364.596,37.2624 366.5,37.5C 368.239,40.2427 370.573,42.2427 373.5,43.5C 375.167,44.5 376.5,45.8333 377.5,47.5C 380.101,51.7706 383.434,55.4372 387.5,58.5C 384.316,60.4136 380.649,61.0803 376.5,60.5C 366.654,60.632 357.32,62.632 348.5,66.5C 346.447,66.4021 344.78,67.0687 343.5,68.5C 341.447,68.4021 339.78,69.0687 338.5,70.5C 336.151,72.341 333.485,73.6743 330.5,74.5C 328.973,74.427 327.973,75.0937 327.5,76.5C 325.326,76.7497 323.659,77.7497 322.5,79.5C 322.5,80.1667 322.167,80.5 321.5,80.5C 319.973,80.427 318.973,81.0937 318.5,82.5C 316.596,82.7376 315.262,83.7376 314.5,85.5C 313.833,86.8333 312.833,87.8333 311.5,88.5C 307.167,90.8333 303.833,94.1667 301.5,98.5C 301.167,99.5 300.5,100.167 299.5,100.5C 297.738,101.262 296.738,102.596 296.5,104.5C 296.5,105.167 296.167,105.5 295.5,105.5C 294.711,105.783 294.044,106.283 293.5,107C 296.482,107.498 299.482,107.665 302.5,107.5C 304.5,107.5 306.5,107.5 308.5,107.5C 318.025,109.943 327.692,112.276 337.5,114.5C 342.977,117.403 348.643,120.07 354.5,122.5C 354.973,123.906 355.973,124.573 357.5,124.5C 358.659,126.25 360.326,127.25 362.5,127.5C 363.262,129.262 364.596,130.262 366.5,130.5C 367.911,132.914 369.911,134.581 372.5,135.5C 373.167,135.5 373.5,135.833 373.5,136.5C 375.167,138.833 377.167,140.833 379.5,142.5C 380.419,145.089 382.086,147.089 384.5,148.5C 384.738,150.404 385.738,151.738 387.5,152.5C 388.08,154.749 389.413,156.415 391.5,157.5C 391.427,159.027 392.094,160.027 393.5,160.5C 394.338,160.842 394.672,161.508 394.5,162.5C 394.427,164.027 395.094,165.027 396.5,165.5C 396.427,167.027 397.094,168.027 398.5,168.5C 400.008,170.181 401.008,172.181 401.5,174.5C 402.326,177.485 403.659,180.151 405.5,182.5C 406.674,183.514 407.34,184.847 407.5,186.5C 407.402,188.553 408.069,190.22 409.5,191.5C 409.5,192.167 409.5,192.833 409.5,193.5C 402.209,192.608 394.876,192.274 387.5,192.5C 377.84,192.451 368.506,193.785 359.5,196.5C 357.095,197.768 354.428,198.435 351.5,198.5C 348.848,198.41 346.515,199.076 344.5,200.5C 341.848,200.41 339.515,201.076 337.5,202.5C 335.102,202.259 333.102,202.926 331.5,204.5C 326.247,205.793 321.581,208.126 317.5,211.5C 315.973,211.427 314.973,212.094 314.5,213.5C 312.284,214.203 310.451,215.536 309,217.5C 308.308,218.437 308.475,219.103 309.5,219.5C 312.247,222.207 315.58,223.873 319.5,224.5C 321.426,226.293 323.759,227.293 326.5,227.5C 328.819,227.992 330.819,228.992 332.5,230.5C 333.659,232.25 335.326,233.25 337.5,233.5C 338.492,233.328 339.158,233.662 339.5,234.5C 339.973,235.906 340.973,236.573 342.5,236.5C 342.973,237.906 343.973,238.573 345.5,238.5C 345.973,239.906 346.973,240.573 348.5,240.5C 349.539,242.531 351.205,243.864 353.5,244.5C 356.452,248.119 359.785,251.452 363.5,254.5C 364.08,256.749 365.413,258.415 367.5,259.5C 367.427,261.027 368.094,262.027 369.5,262.5C 369.427,264.027 370.094,265.027 371.5,265.5C 371.75,267.674 372.75,269.341 374.5,270.5C 376.625,273.088 377.958,276.088 378.5,279.5C 378.12,281.698 378.787,283.365 380.5,284.5C 380.259,286.898 380.926,288.898 382.5,290.5C 385.604,300.902 386.938,311.569 386.5,322.5C 383.759,322.293 381.426,321.293 379.5,319.5C 378.22,318.069 376.553,317.402 374.5,317.5C 373.508,317.672 372.842,317.338 372.5,316.5C 371.22,315.069 369.553,314.402 367.5,314.5C 363.605,313.538 359.939,312.204 356.5,310.5C 355.01,308.72 353.01,308.054 350.5,308.5C 348.898,306.926 346.898,306.259 344.5,306.5C 344.167,306.5 343.833,306.5 343.5,306.5C 338.899,304.098 333.899,302.765 328.5,302.5C 319.35,301.25 310.35,299.917 301.5,298.5C 277.077,296.139 253.077,298.472 229.5,305.5C 228.432,306.434 227.099,306.768 225.5,306.5C 220.471,306.92 215.805,308.254 211.5,310.5C 207.838,310.723 204.505,311.723 201.5,313.5C 197.838,313.723 194.505,314.723 191.5,316.5C 187.521,316.742 183.854,317.742 180.5,319.5C 173.487,322.084 166.154,323.751 158.5,324.5C 150.178,325.287 141.844,325.954 133.5,326.5C 125.099,326.816 117.099,325.482 109.5,322.5C 108.365,320.787 106.698,320.12 104.5,320.5C 102.447,320.598 100.78,319.931 99.5,318.5C 96.9922,316.076 93.9922,314.41 90.5,313.5C 90.0269,312.094 89.0269,311.427 87.5,311.5C 87.0269,310.094 86.0269,309.427 84.5,309.5C 84.0269,308.094 83.0269,307.427 81.5,307.5C 80.4154,305.413 78.7488,304.08 76.5,303.5C 74.4309,300.427 71.7642,298.094 68.5,296.5C 65.5,294.167 62.8333,291.5 60.5,288.5C 59.7974,286.284 58.4641,284.451 56.5,283C 49.5071,282.334 42.5071,281.834 35.5,281.5C 33.901,281.768 32.5676,281.434 31.5,280.5C 30.2196,279.069 28.5529,278.402 26.5,278.5C 25.5084,278.672 24.8417,278.338 24.5,277.5C 23.1667,275.5 21.5,273.833 19.5,272.5C 18.0277,270.883 17.361,268.883 17.5,266.5C 17.361,264.117 18.0277,262.117 19.5,260.5C 20.8333,259.833 21.8333,258.833 22.5,257.5C 23.7804,256.069 25.4471,255.402 27.5,255.5C 29.5529,255.598 31.2196,254.931 32.5,253.5C 33.4972,253.53 34.1639,253.03 34.5,252C 33.7741,249.366 32.4407,247.199 30.5,245.5C 29.6618,245.158 29.3284,244.492 29.5,243.5C 28.9213,240.669 27.588,238.336 25.5,236.5C 24.9579,233.088 23.6246,230.088 21.5,227.5C 20.0006,221.68 18.3339,216.013 16.5,210.5C 15.5489,209.081 15.2155,207.415 15.5,205.5C 14.7314,193.85 14.3981,182.183 14.5,170.5C 15.2827,161.805 16.2827,153.138 17.5,144.5C 17.2927,141.759 16.2927,139.426 14.5,137.5C 14.5979,135.447 13.9313,133.78 12.5,132.5C 12.5979,130.447 11.9313,128.78 10.5,127.5C 10.5979,125.447 9.93127,123.78 8.5,122.5C 8.59794,120.447 7.93127,118.78 6.5,117.5C 5.26162,115.786 4.59495,113.786 4.5,111.5C 3.45107,105.317 2.11774,99.3169 0.5,93.5C 0.166667,93.5 -0.166667,93.5 -0.5,93.5C -0.5,89.8333 -0.5,86.1667 -0.5,82.5C 0.202776,80.3713 1.20278,78.3713 2.5,76.5C 4.5,75.1667 6.16667,73.5 7.5,71.5C 7.84171,70.6618 8.50838,70.3284 9.5,70.5C 13.7978,69.8005 18.1311,69.4672 22.5,69.5C 25.2788,69.2786 27.9455,69.612 30.5,70.5C 35.8785,72.5932 41.5451,73.9265 47.5,74.5C 54.675,77.2538 62.0083,78.2538 69.5,77.5C 69.8333,76.5 70.5,75.8333 71.5,75.5C 74.5,73.1667 77.1667,70.5 79.5,67.5C 83.1002,65.5698 86.1002,62.9031 88.5,59.5C 91.0892,58.5806 93.0892,56.914 94.5,54.5C 96.0269,54.573 97.0269,53.9063 97.5,52.5C 99.4044,52.2624 100.738,51.2624 101.5,49.5C 104.37,48.5667 106.704,46.9 108.5,44.5C 110.027,44.573 111.027,43.9063 111.5,42.5C 113.674,42.2503 115.341,41.2503 116.5,39.5C 118.674,39.2503 120.341,38.2503 121.5,36.5C 124.331,35.9213 126.664,34.588 128.5,32.5C 130.181,30.9925 132.181,29.9925 134.5,29.5C 136.819,29.0075 138.819,28.0075 140.5,26.5C 140.842,25.6618 141.508,25.3284 142.5,25.5C 145.241,25.2927 147.574,24.2927 149.5,22.5C 151.426,20.7073 153.759,19.7073 156.5,19.5C 158.553,19.5979 160.22,18.9313 161.5,17.5C 162.209,16.596 163.209,16.2627 164.5,16.5C 166.553,16.5979 168.22,15.9313 169.5,14.5C 171.214,13.2616 173.214,12.595 175.5,12.5C 178.228,12.8294 180.562,12.1628 182.5,10.5C 189.789,9.59322 196.789,7.92655 203.5,5.5C 206.589,4.21543 209.922,3.54877 213.5,3.5C 224.652,2.55941 235.652,1.55941 246.5,0.5C 247.167,0.5 247.5,0.166667 247.5,-0.5 Z M 155.5,113.5 C 160.602,114.534 165.602,116.201 170.5,118.5C 171.585,120.587 173.251,121.92 175.5,122.5C 175.833,123.5 176.5,124.167 177.5,124.5C 178.34,126.853 179.674,128.853 181.5,130.5C 181.992,132.819 182.992,134.819 184.5,136.5C 184.328,137.492 184.662,138.158 185.5,138.5C 186.261,142.784 187.595,146.784 189.5,150.5C 192.751,167.674 194.417,185.008 194.5,202.5C 192.329,212.183 189.996,221.85 187.5,231.5C 186.069,232.78 185.402,234.447 185.5,236.5C 183.992,238.181 182.992,240.181 182.5,242.5C 179.677,245.475 177.344,248.808 175.5,252.5C 174.5,252.833 173.833,253.5 173.5,254.5C 171.251,255.08 169.585,256.413 168.5,258.5C 165.515,259.326 162.849,260.659 160.5,262.5C 153.949,264.153 147.283,265.153 140.5,265.5C 135.354,264.449 130.021,263.782 124.5,263.5C 108.929,259.961 93.2621,256.961 77.5,254.5C 79.1042,253.713 79.7709,252.38 79.5,250.5C 80.1641,248.022 80.4975,245.355 80.5,242.5C 80.6211,237.907 79.9544,233.574 78.5,229.5C 78.5905,226.848 77.9238,224.515 76.5,222.5C 76.1218,220.079 75.4552,217.746 74.5,215.5C 77.6727,216.368 80.6727,216.368 83.5,215.5C 84.7498,215.423 85.5831,214.756 86,213.5C 87.7665,196.631 90.5998,179.964 94.5,163.5C 96.4032,160.47 97.7365,157.137 98.5,153.5C 99.6737,152.486 100.34,151.153 100.5,149.5C 102.25,148.341 103.25,146.674 103.5,144.5C 104.906,144.027 105.573,143.027 105.5,141.5C 106.906,141.027 107.573,140.027 107.5,138.5C 108.167,138.5 108.5,138.167 108.5,137.5C 112.5,134.167 116.167,130.5 119.5,126.5C 121.404,126.262 122.738,125.262 123.5,123.5C 125.674,123.25 127.341,122.25 128.5,120.5C 129.492,120.672 130.158,120.338 130.5,119.5C 134.137,118.737 137.47,117.403 140.5,115.5C 145.5,114.833 150.5,114.167 155.5,113.5 Z M 38.5,151.5 C 40.2161,151.629 41.8828,151.962 43.5,152.5C 43.8333,153.5 44.5,154.167 45.5,154.5C 45.9925,156.819 46.9925,158.819 48.5,160.5C 48.8984,164.761 49.8984,168.761 51.5,172.5C 51.4095,175.152 52.0762,177.485 53.5,179.5C 53.2594,181.898 53.9261,183.898 55.5,185.5C 56.0966,190.017 57.7633,194.017 60.5,197.5C 60.1667,198.167 59.8333,198.833 59.5,199.5C 55.5,200.167 53.1667,202.5 52.5,206.5C 51.8359,208.978 51.5025,211.645 51.5,214.5C 51.3367,218.777 52.0033,222.777 53.5,226.5C 53.2322,228.099 53.5655,229.432 54.5,230.5C 54.8606,234.915 56.1939,238.915 58.5,242.5C 58.4021,244.553 59.0687,246.22 60.5,247.5C 60.4021,249.553 61.0687,251.22 62.5,252.5C 62.631,253.239 62.4643,253.906 62,254.5C 56.9283,253.529 51.7616,253.195 46.5,253.5C 46.2503,251.326 45.2503,249.659 43.5,248.5C 43.2503,246.326 42.2503,244.659 40.5,243.5C 40.3404,241.847 39.6737,240.514 38.5,239.5C 35.8098,231.76 33.1431,224.093 30.5,216.5C 30.7678,214.901 30.4345,213.568 29.5,212.5C 29.2181,206.979 28.5514,201.646 27.5,196.5C 27.5,193.5 27.5,190.5 27.5,187.5C 28.7123,177.559 30.379,167.559 32.5,157.5C 33.3382,157.158 33.6716,156.492 33.5,155.5C 34.5,155.167 35.1667,154.5 35.5,153.5C 36.7095,153.068 37.7095,152.401 38.5,151.5 Z"/></g>
<g><path style="opacity:0.961" fill="#9c9c9c" d="M 246.5,0.5 C 235.652,1.55941 224.652,2.55941 213.5,3.5C 224.233,1.13856 235.233,0.138565 246.5,0.5 Z"/></g>
<g><path style="opacity:0.384" fill="#cbcbcb" d="M 283.5,2.5 C 287.458,2.25108 291.124,2.91774 294.5,4.5C 290.613,4.35407 286.946,3.6874 283.5,2.5 Z"/></g>
<g><path style="opacity:0.259" fill="#d1d1d1" d="M 294.5,4.5 C 300.17,4.91737 305.503,6.25071 310.5,8.5C 304.906,7.7683 299.573,6.43496 294.5,4.5 Z"/></g>
<g><path style="opacity:0.267" fill="#d6d6d6" d="M 310.5,8.5 C 314.915,8.8606 318.915,10.1939 322.5,12.5C 318.216,11.7387 314.216,10.4053 310.5,8.5 Z"/></g>
<g><path style="opacity:0.906" fill="#a6a6a6" d="M 203.5,5.5 C 196.789,7.92655 189.789,9.59322 182.5,10.5C 189.211,8.07345 196.211,6.40678 203.5,5.5 Z"/></g>
<g><path style="opacity:0.937" fill="#acacac" d="M 182.5,10.5 C 180.562,12.1628 178.228,12.8294 175.5,12.5C 177.599,11.3882 179.933,10.7215 182.5,10.5 Z"/></g>
<g><path style="opacity:0.514" fill="#c6c6c6" d="M 322.5,12.5 C 324.553,12.4021 326.22,13.0687 327.5,14.5C 325.447,14.5979 323.78,13.9313 322.5,12.5 Z"/></g>
<g><path style="opacity:0.369" fill="#dedede" d="M 169.5,14.5 C 168.22,15.9313 166.553,16.5979 164.5,16.5C 165.78,15.0687 167.447,14.4021 169.5,14.5 Z"/></g>
<g><path style="opacity:0.322" fill="#d7d7d7" d="M 327.5,14.5 C 330.912,15.0421 333.912,16.3754 336.5,18.5C 333.088,17.9579 330.088,16.6246 327.5,14.5 Z"/></g>
<g><path style="opacity:0.353" fill="#e0e0e0" d="M 161.5,17.5 C 160.22,18.9313 158.553,19.5979 156.5,19.5C 157.78,18.0687 159.447,17.4021 161.5,17.5 Z"/></g>
<g><path style="opacity:0.263" fill="#e2e2e2" d="M 149.5,22.5 C 147.574,24.2927 145.241,25.2927 142.5,25.5C 144.426,23.7073 146.759,22.7073 149.5,22.5 Z"/></g>
<g><path style="opacity:0.267" fill="#e7e7e7" d="M 340.5,20.5 C 343.331,21.0787 345.664,22.412 347.5,24.5C 344.669,23.9213 342.336,22.588 340.5,20.5 Z"/></g>
<g><path style="opacity:0.259" fill="#ededed" d="M 349.5,25.5 C 351.027,25.427 352.027,26.0937 352.5,27.5C 350.973,27.573 349.973,26.9063 349.5,25.5 Z"/></g>
<g><path style="opacity:0.267" fill="#dedede" d="M 140.5,26.5 C 138.819,28.0075 136.819,29.0075 134.5,29.5C 135.911,27.461 137.911,26.461 140.5,26.5 Z"/></g>
<g><path style="opacity:0.259" fill="#e7e7e7" d="M 352.5,27.5 C 354.027,27.427 355.027,28.0937 355.5,29.5C 353.973,29.573 352.973,28.9063 352.5,27.5 Z"/></g>
<g><path style="opacity:0.259" fill="#e2e2e2" d="M 355.5,29.5 C 357.027,29.427 358.027,30.0937 358.5,31.5C 356.973,31.573 355.973,30.9063 355.5,29.5 Z"/></g>
<g><path style="opacity:0.259" fill="#e0e0e0" d="M 358.5,31.5 C 360.404,31.7376 361.738,32.7376 362.5,34.5C 360.596,34.2624 359.262,33.2624 358.5,31.5 Z"/></g>
<g><path style="opacity:0.329" fill="#dadada" d="M 128.5,32.5 C 126.664,34.588 124.331,35.9213 121.5,36.5C 123.336,34.412 125.669,33.0787 128.5,32.5 Z"/></g>
<g><path style="opacity:0.259" fill="#e2e2e2" d="M 362.5,34.5 C 364.404,34.7376 365.738,35.7376 366.5,37.5C 364.596,37.2624 363.262,36.2624 362.5,34.5 Z"/></g>
<g><path style="opacity:0.322" fill="#dcdcdc" d="M 121.5,36.5 C 120.341,38.2503 118.674,39.2503 116.5,39.5C 117.659,37.7497 119.326,36.7497 121.5,36.5 Z"/></g>
<g><path style="opacity:0.259" fill="#e1e1e1" d="M 366.5,37.5 C 369.427,38.7573 371.761,40.7573 373.5,43.5C 370.573,42.2427 368.239,40.2427 366.5,37.5 Z"/></g>
<g><path style="opacity:0.298" fill="#e2e2e2" d="M 116.5,39.5 C 115.341,41.2503 113.674,42.2503 111.5,42.5C 112.659,40.7497 114.326,39.7497 116.5,39.5 Z"/></g>
<g><path style="opacity:0.522" fill="#dddddd" d="M 111.5,42.5 C 111.027,43.9063 110.027,44.573 108.5,44.5C 108.973,43.0937 109.973,42.427 111.5,42.5 Z"/></g>
<g><path style="opacity:0.478" fill="#d2d2d2" d="M 108.5,44.5 C 106.704,46.9 104.37,48.5667 101.5,49.5C 103.296,47.1 105.63,45.4333 108.5,44.5 Z"/></g>
<g><path style="opacity:0.875" fill="#bfbfbf" d="M 377.5,47.5 C 381.566,50.5628 384.899,54.2294 387.5,58.5C 383.434,55.4372 380.101,51.7706 377.5,47.5 Z"/></g>
<g><path style="opacity:0.584" fill="#c3c3c3" d="M 101.5,49.5 C 100.738,51.2624 99.4044,52.2624 97.5,52.5C 98.2623,50.7376 99.5956,49.7376 101.5,49.5 Z"/></g>
<g><path style="opacity:0.592" fill="#d1d1d1" d="M 97.5,52.5 C 97.0269,53.9063 96.0269,54.573 94.5,54.5C 94.9731,53.0937 95.9731,52.427 97.5,52.5 Z"/></g>
<g><path style="opacity:0.725" fill="#bebebe" d="M 94.5,54.5 C 93.0892,56.914 91.0892,58.5806 88.5,59.5C 89.9108,57.086 91.9108,55.4194 94.5,54.5 Z"/></g>
<g><path style="opacity:0.447" fill="#cecece" d="M 376.5,60.5 C 367.211,62.1514 357.878,64.1514 348.5,66.5C 357.32,62.632 366.654,60.632 376.5,60.5 Z"/></g>
<g><path style="opacity:0.616" fill="#b8b8b8" d="M 88.5,59.5 C 86.1002,62.9031 83.1002,65.5698 79.5,67.5C 81.8998,64.0969 84.8998,61.4302 88.5,59.5 Z"/></g>
<g><path style="opacity:0.267" fill="#e0e0e0" d="M 348.5,66.5 C 347.22,67.9313 345.553,68.5979 343.5,68.5C 344.78,67.0687 346.447,66.4021 348.5,66.5 Z"/></g>
<g><path style="opacity:0.259" fill="#e8e8e8" d="M 22.5,69.5 C 18.1311,69.4672 13.7978,69.8005 9.5,70.5C 11.8476,69.0483 14.5143,68.3817 17.5,68.5C 19.3693,68.5068 21.036,68.8401 22.5,69.5 Z"/></g>
<g><path style="opacity:0.29" fill="#dedede" d="M 343.5,68.5 C 342.22,69.9313 340.553,70.5979 338.5,70.5C 339.78,69.0687 341.447,68.4021 343.5,68.5 Z"/></g>
<g><path style="opacity:0.259" fill="#d0d0d0" d="M 30.5,70.5 C 36.4549,71.0735 42.1215,72.4068 47.5,74.5C 41.5451,73.9265 35.8785,72.5932 30.5,70.5 Z"/></g>
<g><path style="opacity:0.424" fill="#e6e6e6" d="M 79.5,67.5 C 77.1667,70.5 74.5,73.1667 71.5,75.5C 73.1667,71.8333 75.8333,69.1667 79.5,67.5 Z"/></g>
<g><path style="opacity:0.576" fill="#d3d3d3" d="M 7.5,71.5 C 6.16667,73.5 4.5,75.1667 2.5,76.5C 3.16667,73.8333 4.83333,72.1667 7.5,71.5 Z"/></g>
<g><path style="opacity:0.369" fill="#c2c2c2" d="M 47.5,74.5 C 54.8014,75.7168 62.1348,76.7168 69.5,77.5C 62.0083,78.2538 54.675,77.2538 47.5,74.5 Z"/></g>
<g><path style="opacity:0.259" fill="#f3f3f3" d="M 330.5,74.5 C 330.027,75.9063 329.027,76.573 327.5,76.5C 327.973,75.0937 328.973,74.427 330.5,74.5 Z"/></g>
<g><path style="opacity:0.282" fill="#e1e1e1" d="M 327.5,76.5 C 326.341,78.2503 324.674,79.2503 322.5,79.5C 323.659,77.7497 325.326,76.7497 327.5,76.5 Z"/></g>
<g><path style="opacity:0.259" fill="#f7f7f7" d="M 321.5,80.5 C 321.027,81.9063 320.027,82.573 318.5,82.5C 318.973,81.0937 319.973,80.427 321.5,80.5 Z"/></g>
<g><path style="opacity:0.259" fill="#eeeeee" d="M 318.5,82.5 C 317.738,84.2624 316.404,85.2624 314.5,85.5C 315.262,83.7376 316.596,82.7376 318.5,82.5 Z"/></g>
<g><path style="opacity:0.259" fill="#eaeaea" d="M 311.5,88.5 C 308.5,92.1667 305.167,95.5 301.5,98.5C 303.833,94.1667 307.167,90.8333 311.5,88.5 Z"/></g>
<g><path style="opacity:0.431" fill="#c4c4c4" d="M 0.5,93.5 C 2.11774,99.3169 3.45107,105.317 4.5,111.5C 1.9319,105.883 0.598571,99.8834 0.5,93.5 Z"/></g>
<g><path style="opacity:0.259" fill="#ececec" d="M 299.5,100.5 C 299.262,102.404 298.262,103.738 296.5,104.5C 296.738,102.596 297.738,101.262 299.5,100.5 Z"/></g>
<g><path style="opacity:0.259" fill="#f0f0f0" d="M 295.5,105.5 C 297.833,106.167 300.167,106.833 302.5,107.5C 299.482,107.665 296.482,107.498 293.5,107C 294.044,106.283 294.711,105.783 295.5,105.5 Z"/></g>
<g><path style="opacity:0.478" fill="#cacaca" d="M 308.5,107.5 C 315.252,108.125 321.919,109.292 328.5,111C 331.865,111.505 334.865,112.672 337.5,114.5C 327.692,112.276 318.025,109.943 308.5,107.5 Z"/></g>
<g><path style="opacity:0.271" fill="#e2e2e3" d="M 155.5,113.5 C 161.332,113 166.332,114.666 170.5,118.5C 165.602,116.201 160.602,114.534 155.5,113.5 Z"/></g>
<g><path style="opacity:0.271" fill="#dcdcdc" d="M 337.5,114.5 C 343.86,115.848 349.527,118.515 354.5,122.5C 348.643,120.07 342.977,117.403 337.5,114.5 Z"/></g>
<g><path style="opacity:0.282" fill="#e6e6e7" d="M 140.5,115.5 C 137.47,117.403 134.137,118.737 130.5,119.5C 133.37,117.206 136.703,115.872 140.5,115.5 Z"/></g>
<g><path style="opacity:0.4" fill="#d8d8d8" d="M 6.5,117.5 C 7.93127,118.78 8.59794,120.447 8.5,122.5C 7.06873,121.22 6.40206,119.553 6.5,117.5 Z"/></g>
<g><path style="opacity:0.271" fill="#e8e8e9" d="M 128.5,120.5 C 127.341,122.25 125.674,123.25 123.5,123.5C 124.659,121.75 126.326,120.75 128.5,120.5 Z"/></g>
<g><path style="opacity:0.282" fill="#ededee" d="M 170.5,118.5 C 172.749,119.08 174.415,120.413 175.5,122.5C 173.251,121.92 171.585,120.587 170.5,118.5 Z"/></g>
<g><path style="opacity:0.259" fill="#e7e7e7" d="M 354.5,122.5 C 356.027,122.427 357.027,123.094 357.5,124.5C 355.973,124.573 354.973,123.906 354.5,122.5 Z"/></g>
<g><path style="opacity:0.408" fill="#d3d3d3" d="M 8.5,122.5 C 9.93127,123.78 10.5979,125.447 10.5,127.5C 9.06873,126.22 8.40206,124.553 8.5,122.5 Z"/></g>
<g><path style="opacity:0.271" fill="#f4f4f5" d="M 123.5,123.5 C 122.738,125.262 121.404,126.262 119.5,126.5C 120.262,124.738 121.596,123.738 123.5,123.5 Z"/></g>
<g><path style="opacity:0.259" fill="#e8e8e8" d="M 357.5,124.5 C 359.674,124.75 361.341,125.75 362.5,127.5C 360.326,127.25 358.659,126.25 357.5,124.5 Z"/></g>
<g><path style="opacity:0.271" fill="#efeff0" d="M 177.5,124.5 C 179.822,125.802 181.155,127.802 181.5,130.5C 179.674,128.853 178.34,126.853 177.5,124.5 Z"/></g>
<g><path style="opacity:0.259" fill="#e5e5e5" d="M 362.5,127.5 C 364.404,127.738 365.738,128.738 366.5,130.5C 364.596,130.262 363.262,129.262 362.5,127.5 Z"/></g>
<g><path style="opacity:0.361" fill="#dadada" d="M 10.5,127.5 C 11.9313,128.78 12.5979,130.447 12.5,132.5C 11.0687,131.22 10.4021,129.553 10.5,127.5 Z"/></g>
<g><path style="opacity:0.259" fill="#dddddd" d="M 366.5,130.5 C 369.089,131.419 371.089,133.086 372.5,135.5C 369.911,134.581 367.911,132.914 366.5,130.5 Z"/></g>
<g><path style="opacity:0.267" fill="#f2f2f3" d="M 119.5,126.5 C 116.167,130.5 112.5,134.167 108.5,137.5C 111.167,132.833 114.833,129.167 119.5,126.5 Z"/></g>
<g><path style="opacity:0.29" fill="#e1e1e2" d="M 181.5,130.5 C 183.539,131.911 184.539,133.911 184.5,136.5C 182.992,134.819 181.992,132.819 181.5,130.5 Z"/></g>
<g><path style="opacity:0.329" fill="#e1e1e1" d="M 12.5,132.5 C 13.9313,133.78 14.5979,135.447 14.5,137.5C 13.0687,136.22 12.4021,134.553 12.5,132.5 Z"/></g>
<g><path style="opacity:0.259" fill="#f4f4f4" d="M 373.5,136.5 C 376.5,137.5 378.5,139.5 379.5,142.5C 377.167,140.833 375.167,138.833 373.5,136.5 Z"/></g>
<g><path style="opacity:0.259" fill="#e1e1e1" d="M 14.5,137.5 C 16.2927,139.426 17.2927,141.759 17.5,144.5C 15.7073,142.574 14.7073,140.241 14.5,137.5 Z"/></g>
<g><path style="opacity:0.267" fill="#ebebec" d="M 107.5,138.5 C 107.573,140.027 106.906,141.027 105.5,141.5C 105.427,139.973 106.094,138.973 107.5,138.5 Z"/></g>
<g><path style="opacity:0.361" fill="#dddddd" d="M 185.5,138.5 C 187.806,142.085 189.139,146.085 189.5,150.5C 187.595,146.784 186.261,142.784 185.5,138.5 Z"/></g>
<g><path style="opacity:0.267" fill="#f2f2f2" d="M 105.5,141.5 C 105.573,143.027 104.906,144.027 103.5,144.5C 103.427,142.973 104.094,141.973 105.5,141.5 Z"/></g>
<g><path style="opacity:0.271" fill="#eeeeef" d="M 103.5,144.5 C 103.25,146.674 102.25,148.341 100.5,149.5C 100.75,147.326 101.75,145.659 103.5,144.5 Z"/></g>
<g><path style="opacity:0.463" fill="#c9c9c9" d="M 379.5,142.5 C 381.914,143.911 383.581,145.911 384.5,148.5C 382.086,147.089 380.419,145.089 379.5,142.5 Z"/></g>
<g><path style="opacity:0.494" fill="#b9b9ba" d="M 38.5,151.5 C 40.4547,150.07 42.1214,150.403 43.5,152.5C 41.8828,151.962 40.2161,151.629 38.5,151.5 Z"/></g>
<g><path style="opacity:0.553" fill="#c9c9c9" d="M 384.5,148.5 C 386.262,149.262 387.262,150.596 387.5,152.5C 385.738,151.738 384.738,150.404 384.5,148.5 Z"/></g>
<g><path style="opacity:0.267" fill="#e1e1e2" d="M 35.5,153.5 C 35.1667,154.5 34.5,155.167 33.5,155.5C 33.5,154.167 34.1667,153.5 35.5,153.5 Z"/></g>
<g><path style="opacity:0.267" fill="#e7e7e8" d="M 98.5,153.5 C 97.7365,157.137 96.4032,160.47 94.5,163.5C 94.8723,159.703 96.2057,156.37 98.5,153.5 Z"/></g>
<g><path style="opacity:0.271" fill="#f0f0f1" d="M 45.5,154.5 C 47.539,155.911 48.539,157.911 48.5,160.5C 46.9925,158.819 45.9925,156.819 45.5,154.5 Z"/></g>
<g><path style="opacity:0.298" fill="#dfdfdf" d="M 387.5,152.5 C 389.587,153.585 390.92,155.251 391.5,157.5C 389.413,156.415 388.08,154.749 387.5,152.5 Z"/></g>
<g><path style="opacity:0.267" fill="#d6d6d7" d="M 189.5,150.5 C 194.25,167.578 195.917,184.912 194.5,202.5C 194.417,185.008 192.751,167.674 189.5,150.5 Z"/></g>
<g><path style="opacity:0.267" fill="#e3e3e4" d="M 32.5,157.5 C 30.379,167.559 28.7123,177.559 27.5,187.5C 27.2411,177.053 28.9078,167.053 32.5,157.5 Z"/></g>
<g><path style="opacity:0.314" fill="#e7e7e7" d="M 391.5,157.5 C 392.906,157.973 393.573,158.973 393.5,160.5C 392.094,160.027 391.427,159.027 391.5,157.5 Z"/></g>
<g><path style="opacity:0.267" fill="#dfdfe0" d="M 48.5,160.5 C 50.4159,164.163 51.4159,168.163 51.5,172.5C 49.8984,168.761 48.8984,164.761 48.5,160.5 Z"/></g>
<g><path style="opacity:0.369" fill="#d9d9d9" d="M 394.5,162.5 C 395.906,162.973 396.573,163.973 396.5,165.5C 395.094,165.027 394.427,164.027 394.5,162.5 Z"/></g>
<g><path style="opacity:0.314" fill="#e6e6e6" d="M 396.5,165.5 C 397.906,165.973 398.573,166.973 398.5,168.5C 397.094,168.027 396.427,167.027 396.5,165.5 Z"/></g>
<g><path style="opacity:0.902" fill="#949495" d="M 161.5,169.5 C 157.766,169.323 154.099,169.656 150.5,170.5C 150.611,169.883 150.944,169.383 151.5,169C 155.027,168.192 158.36,168.359 161.5,169.5 Z"/></g>
<g><path style="opacity:1" fill="#272727" d="M 161.5,169.5 C 162.899,170.89 164.566,171.89 166.5,172.5C 167.5,172.833 168.167,173.5 168.5,174.5C 168.738,176.404 169.738,177.738 171.5,178.5C 172.338,178.842 172.672,179.508 172.5,180.5C 172.12,182.698 172.787,184.365 174.5,185.5C 174.259,187.898 174.926,189.898 176.5,191.5C 177.804,195.36 178.471,199.36 178.5,203.5C 178.716,212.533 178.383,221.533 177.5,230.5C 176.326,231.514 175.66,232.847 175.5,234.5C 174.094,234.973 173.427,235.973 173.5,237.5C 173.167,238.5 172.5,239.167 171.5,239.5C 168.236,240.324 164.902,240.658 161.5,240.5C 161.027,239.094 160.027,238.427 158.5,238.5C 157.5,238.167 156.833,237.5 156.5,236.5C 156.573,234.973 155.906,233.973 154.5,233.5C 153.662,233.158 153.328,232.492 153.5,231.5C 153.598,229.447 152.931,227.78 151.5,226.5C 150.596,225.791 150.263,224.791 150.5,223.5C 150.405,221.214 149.738,219.214 148.5,217.5C 147.566,216.432 147.232,215.099 147.5,213.5C 147.118,208.908 146.118,204.575 144.5,200.5C 143.259,195.823 143.259,191.157 144.5,186.5C 146.074,183.093 147.074,179.427 147.5,175.5C 147.328,174.508 147.662,173.842 148.5,173.5C 149.906,173.027 150.573,172.027 150.5,170.5C 154.099,169.656 157.766,169.323 161.5,169.5 Z"/></g>
<g><path style="opacity:0.235" fill="#dbdbdc" d="M 161.5,169.5 C 163.933,169.273 165.599,170.273 166.5,172.5C 164.566,171.89 162.899,170.89 161.5,169.5 Z"/></g>
<g><path style="opacity:0.427" fill="#c9c9ca" d="M 150.5,170.5 C 150.573,172.027 149.906,173.027 148.5,173.5C 148.427,171.973 149.094,170.973 150.5,170.5 Z"/></g>
<g><path style="opacity:0.267" fill="#e5e5e6" d="M 51.5,172.5 C 52.9238,174.515 53.5905,176.848 53.5,179.5C 52.0762,177.485 51.4095,175.152 51.5,172.5 Z"/></g>
<g><path style="opacity:0.596" fill="#c2c2c3" d="M 168.5,174.5 C 170.262,175.262 171.262,176.596 171.5,178.5C 169.738,177.738 168.738,176.404 168.5,174.5 Z"/></g>
<g><path style="opacity:0.271" fill="#e2e2e2" d="M 401.5,174.5 C 403.873,176.579 405.206,179.246 405.5,182.5C 403.659,180.151 402.326,177.485 401.5,174.5 Z"/></g>
<g><path style="opacity:1" fill="#a5a5a6" d="M 147.5,175.5 C 147.074,179.427 146.074,183.093 144.5,186.5C 144.432,182.43 145.432,178.763 147.5,175.5 Z"/></g>
<g><path style="opacity:0.267" fill="#eeeeef" d="M 53.5,179.5 C 54.7384,181.214 55.405,183.214 55.5,185.5C 53.9261,183.898 53.2594,181.898 53.5,179.5 Z"/></g>
<g><path style="opacity:0.298" fill="#dadada" d="M 94.5,163.5 C 90.5998,179.964 87.7665,196.631 86,213.5C 85.5831,214.756 84.7498,215.423 83.5,215.5C 84.8943,213.049 85.7276,210.382 86,207.5C 87.014,196.069 88.6807,184.735 91,173.5C 91.7013,169.891 92.8679,166.558 94.5,163.5 Z"/></g>
<g><path style="opacity:1" fill="#979798" d="M 172.5,180.5 C 173.931,181.78 174.598,183.447 174.5,185.5C 172.787,184.365 172.12,182.698 172.5,180.5 Z"/></g>
<g><path style="opacity:0.635" fill="#bbbbbb" d="M 14.5,170.5 C 14.3981,182.183 14.7314,193.85 15.5,205.5C 14.0308,198.557 13.3642,191.391 13.5,184C 13.5009,179.32 13.8342,174.82 14.5,170.5 Z"/></g>
<g><path style="opacity:0.882" fill="#b2b2b3" d="M 174.5,185.5 C 175.738,187.214 176.405,189.214 176.5,191.5C 174.926,189.898 174.259,187.898 174.5,185.5 Z"/></g>
<g><path style="opacity:0.267" fill="#e6e6e6" d="M 407.5,186.5 C 408.167,187.167 408.833,187.833 409.5,188.5C 409.5,189.5 409.5,190.5 409.5,191.5C 408.069,190.22 407.402,188.553 407.5,186.5 Z"/></g>
<g><path style="opacity:0.271" fill="#e2e2e3" d="M 55.5,185.5 C 57.685,189.213 59.3517,193.213 60.5,197.5C 57.7633,194.017 56.0966,190.017 55.5,185.5 Z"/></g>
<g><path style="opacity:0.416" fill="#c3c3c3" d="M 387.5,192.5 C 378.312,193.908 368.978,195.241 359.5,196.5C 368.506,193.785 377.84,192.451 387.5,192.5 Z"/></g>
<g><path style="opacity:0.329" fill="#ededee" d="M 60.5,197.5 C 61.7574,198.623 61.4241,199.289 59.5,199.5C 59.8333,198.833 60.1667,198.167 60.5,197.5 Z"/></g>
<g><path style="opacity:0.259" fill="#e6e6e6" d="M 351.5,198.5 C 349.485,199.924 347.152,200.59 344.5,200.5C 346.515,199.076 348.848,198.41 351.5,198.5 Z"/></g>
<g><path style="opacity:0.514" fill="#d1d1d1" d="M 59.5,199.5 C 56.8333,201.5 54.5,203.833 52.5,206.5C 53.1667,202.5 55.5,200.167 59.5,199.5 Z"/></g>
<g><path style="opacity:0.259" fill="#e4e4e4" d="M 344.5,200.5 C 342.485,201.924 340.152,202.59 337.5,202.5C 339.515,201.076 341.848,200.41 344.5,200.5 Z"/></g>
<g><path style="opacity:0.322" fill="#d3d3d3" d="M 337.5,202.5 C 335.786,203.738 333.786,204.405 331.5,204.5C 333.102,202.926 335.102,202.259 337.5,202.5 Z"/></g>
<g><path style="opacity:0.267" fill="#d9d9d9" d="M 27.5,196.5 C 28.5514,201.646 29.2181,206.979 29.5,212.5C 27.8224,207.432 27.1557,202.098 27.5,196.5 Z"/></g>
<g><path style="opacity:0.345" fill="#cecece" d="M 144.5,200.5 C 146.118,204.575 147.118,208.908 147.5,213.5C 145.627,209.485 144.627,205.151 144.5,200.5 Z"/></g>
<g><path style="opacity:0.267" fill="#e6e6e6" d="M 331.5,204.5 C 327.151,207.341 322.484,209.674 317.5,211.5C 321.581,208.126 326.247,205.793 331.5,204.5 Z"/></g>
<g><path style="opacity:0.259" fill="#f8f8f8" d="M 317.5,211.5 C 317.027,212.906 316.027,213.573 314.5,213.5C 314.973,212.094 315.973,211.427 317.5,211.5 Z"/></g>
<g><path style="opacity:0.259" fill="#d7d7d7" d="M 16.5,210.5 C 18.3339,216.013 20.0006,221.68 21.5,227.5C 18.4556,222.338 16.7889,216.672 16.5,210.5 Z"/></g>
<g><path style="opacity:0.714" fill="#aaaaab" d="M 178.5,203.5 C 179.656,211.323 179.823,219.323 179,227.5C 178.768,228.737 178.268,229.737 177.5,230.5C 178.383,221.533 178.716,212.533 178.5,203.5 Z"/></g>
<g><path style="opacity:0.259" fill="#ececec" d="M 314.5,213.5 C 312.833,215.5 311.167,217.5 309.5,219.5C 308.475,219.103 308.308,218.437 309,217.5C 310.451,215.536 312.284,214.203 314.5,213.5 Z"/></g>
<g><path style="opacity:0.29" fill="#e2e2e3" d="M 74.5,215.5 C 75.4552,217.746 76.1218,220.079 76.5,222.5C 74.2636,220.426 73.597,218.092 74.5,215.5 Z"/></g>
<g><path style="opacity:0.224" fill="#dcdcdc" d="M 148.5,217.5 C 149.738,219.214 150.405,221.214 150.5,223.5C 148.926,221.898 148.259,219.898 148.5,217.5 Z"/></g>
<g><path style="opacity:0.29" fill="#dcdcdc" d="M 309.5,219.5 C 313.151,220.659 316.485,222.326 319.5,224.5C 315.58,223.873 312.247,222.207 309.5,219.5 Z"/></g>
<g><path style="opacity:0.282" fill="#d9d9da" d="M 52.5,206.5 C 52.391,213.196 52.7243,219.863 53.5,226.5C 52.0033,222.777 51.3367,218.777 51.5,214.5C 51.5025,211.645 51.8359,208.978 52.5,206.5 Z"/></g>
<g><path style="opacity:0.29" fill="#d9d9d9" d="M 319.5,224.5 C 322.241,224.707 324.574,225.707 326.5,227.5C 323.759,227.293 321.426,226.293 319.5,224.5 Z"/></g>
<g><path style="opacity:0.267" fill="#e4e4e5" d="M 30.5,216.5 C 33.1431,224.093 35.8098,231.76 38.5,239.5C 34.2636,232.461 31.597,224.794 30.5,216.5 Z"/></g>
<g><path style="opacity:0.369" fill="#d6d6d6" d="M 151.5,226.5 C 152.931,227.78 153.598,229.447 153.5,231.5C 152.069,230.22 151.402,228.553 151.5,226.5 Z"/></g>
<g><path style="opacity:0.22" fill="#e5e5e5" d="M 177.5,230.5 C 177.771,232.38 177.104,233.713 175.5,234.5C 175.66,232.847 176.326,231.514 177.5,230.5 Z"/></g>
<g><path style="opacity:0.314" fill="#dbdbdb" d="M 332.5,230.5 C 334.674,230.75 336.341,231.75 337.5,233.5C 335.326,233.25 333.659,232.25 332.5,230.5 Z"/></g>
<g><path style="opacity:0.353" fill="#d6d6d6" d="M 21.5,227.5 C 23.6246,230.088 24.9579,233.088 25.5,236.5C 23.3754,233.912 22.0421,230.912 21.5,227.5 Z"/></g>
<g><path style="opacity:0.267" fill="#e8e8e8" d="M 54.5,230.5 C 56.4053,234.216 57.7387,238.216 58.5,242.5C 56.1939,238.915 54.8606,234.915 54.5,230.5 Z"/></g>
<g><path style="opacity:0.267" fill="#e9e9ea" d="M 187.5,231.5 C 187.598,233.553 186.931,235.22 185.5,236.5C 185.402,234.447 186.069,232.78 187.5,231.5 Z"/></g>
<g><path style="opacity:0.22" fill="#e3e3e3" d="M 154.5,233.5 C 155.906,233.973 156.573,234.973 156.5,236.5C 155.094,236.027 154.427,235.027 154.5,233.5 Z"/></g>
<g><path style="opacity:0.259" fill="#e3e3e3" d="M 339.5,234.5 C 341.027,234.427 342.027,235.094 342.5,236.5C 340.973,236.573 339.973,235.906 339.5,234.5 Z"/></g>
<g><path style="opacity:0.22" fill="#e0e0e0" d="M 175.5,234.5 C 175.573,236.027 174.906,237.027 173.5,237.5C 173.427,235.973 174.094,234.973 175.5,234.5 Z"/></g>
<g><path style="opacity:0.259" fill="#dbdbdb" d="M 342.5,236.5 C 344.027,236.427 345.027,237.094 345.5,238.5C 343.973,238.573 342.973,237.906 342.5,236.5 Z"/></g>
<g><path style="opacity:0.259" fill="#e6e6e6" d="M 345.5,238.5 C 347.027,238.427 348.027,239.094 348.5,240.5C 346.973,240.573 345.973,239.906 345.5,238.5 Z"/></g>
<g><path style="opacity:0.42" fill="#c9c9ca" d="M 158.5,238.5 C 160.027,238.427 161.027,239.094 161.5,240.5C 159.973,240.573 158.973,239.906 158.5,238.5 Z"/></g>
<g><path style="opacity:0.22" fill="#cececf" d="M 171.5,239.5 C 171.389,240.117 171.056,240.617 170.5,241C 167.304,241.805 164.304,241.638 161.5,240.5C 164.902,240.658 168.236,240.324 171.5,239.5 Z"/></g>
<g><path style="opacity:0.259" fill="#e0e0e0" d="M 25.5,236.5 C 27.588,238.336 28.9213,240.669 29.5,243.5C 27.412,241.664 26.0787,239.331 25.5,236.5 Z"/></g>
<g><path style="opacity:0.592" fill="#cbcbcc" d="M 78.5,229.5 C 79.9544,233.574 80.6211,237.907 80.5,242.5C 80.4975,245.355 80.1641,248.022 79.5,250.5C 79.5649,243.476 79.2316,236.476 78.5,229.5 Z"/></g>
<g><path style="opacity:0.259" fill="#cecece" d="M 348.5,240.5 C 350.754,241.124 352.421,242.457 353.5,244.5C 351.205,243.864 349.539,242.531 348.5,240.5 Z"/></g>
<g><path style="opacity:0.282" fill="#dededf" d="M 40.5,243.5 C 42.2503,244.659 43.2503,246.326 43.5,248.5C 41.7497,247.341 40.7497,245.674 40.5,243.5 Z"/></g>
<g><path style="opacity:0.361" fill="#dcdcdd" d="M 58.5,242.5 C 59.9313,243.78 60.5979,245.447 60.5,247.5C 59.0687,246.22 58.4021,244.553 58.5,242.5 Z"/></g>
<g><path style="opacity:0.259" fill="#e0e0e0" d="M 353.5,244.5 C 357.855,246.855 361.188,250.188 363.5,254.5C 359.785,251.452 356.452,248.119 353.5,244.5 Z"/></g>
<g><path style="opacity:0.384" fill="#e1e1e1" d="M 182.5,242.5 C 181.149,246.542 178.815,249.875 175.5,252.5C 177.344,248.808 179.677,245.475 182.5,242.5 Z"/></g>
<g><path style="opacity:0.267" fill="#ebebeb" d="M 30.5,245.5 C 32.4407,247.199 33.7741,249.366 34.5,252C 34.1639,253.03 33.4972,253.53 32.5,253.5C 32.6107,252.883 32.944,252.383 33.5,252C 32.086,250.007 31.086,247.84 30.5,245.5 Z"/></g>
<g><path style="opacity:0.271" fill="#e4e4e5" d="M 43.5,248.5 C 45.2503,249.659 46.2503,251.326 46.5,253.5C 44.7497,252.341 43.7497,250.674 43.5,248.5 Z"/></g>
<g><path style="opacity:0.353" fill="#dbdbdc" d="M 60.5,247.5 C 61.9313,248.78 62.5979,250.447 62.5,252.5C 61.0687,251.22 60.4021,249.553 60.5,247.5 Z"/></g>
<g><path style="opacity:0.267" fill="#e9e9ea" d="M 79.5,250.5 C 79.7709,252.38 79.1042,253.713 77.5,254.5C 77.6596,252.847 78.3263,251.514 79.5,250.5 Z"/></g>
<g><path style="opacity:0.263" fill="#e3e3e3" d="M 32.5,253.5 C 31.2196,254.931 29.5529,255.598 27.5,255.5C 28.7804,254.069 30.4471,253.402 32.5,253.5 Z"/></g>
<g><path style="opacity:0.345" fill="#d5d5d5" d="M 62.5,252.5 C 63.404,253.209 63.7373,254.209 63.5,255.5C 57.6825,254.972 52.0158,254.305 46.5,253.5C 51.7616,253.195 56.9283,253.529 62,254.5C 62.4643,253.906 62.631,253.239 62.5,252.5 Z"/></g>
<g><path style="opacity:0.314" fill="#ebebeb" d="M 173.5,254.5 C 172.415,256.587 170.749,257.92 168.5,258.5C 169.585,256.413 171.251,255.08 173.5,254.5 Z"/></g>
<g><path style="opacity:0.306" fill="#dfdfdf" d="M 363.5,254.5 C 365.587,255.585 366.92,257.251 367.5,259.5C 365.413,258.415 364.08,256.749 363.5,254.5 Z"/></g>
<g><path style="opacity:0.361" fill="#e8e8e8" d="M 22.5,257.5 C 21.8333,258.833 20.8333,259.833 19.5,260.5C 19.5,258.5 20.5,257.5 22.5,257.5 Z"/></g>
<g><path style="opacity:0.306" fill="#d8d8d9" d="M 77.5,254.5 C 93.2621,256.961 108.929,259.961 124.5,263.5C 108.214,260.786 91.8802,258.286 75.5,256C 76.0442,255.283 76.7109,254.783 77.5,254.5 Z"/></g>
<g><path style="opacity:0.271" fill="#ebebec" d="M 168.5,258.5 C 166.421,260.873 163.754,262.206 160.5,262.5C 162.849,260.659 165.515,259.326 168.5,258.5 Z"/></g>
<g><path style="opacity:0.392" fill="#dddddd" d="M 367.5,259.5 C 368.906,259.973 369.573,260.973 369.5,262.5C 368.094,262.027 367.427,261.027 367.5,259.5 Z"/></g>
<g><path style="opacity:0.447" fill="#d4d4d5" d="M 124.5,263.5 C 130.021,263.782 135.354,264.449 140.5,265.5C 134.902,265.844 129.568,265.178 124.5,263.5 Z"/></g>
<g><path style="opacity:0.384" fill="#d9d9d9" d="M 369.5,262.5 C 370.906,262.973 371.573,263.973 371.5,265.5C 370.094,265.027 369.427,264.027 369.5,262.5 Z"/></g>
<g><path style="opacity:0.306" fill="#d9d9d9" d="M 371.5,265.5 C 373.25,266.659 374.25,268.326 374.5,270.5C 372.75,269.341 371.75,267.674 371.5,265.5 Z"/></g>
<g><path style="opacity:0.259" fill="#ebebeb" d="M 19.5,272.5 C 21.5,273.833 23.1667,275.5 24.5,277.5C 21.8333,276.833 20.1667,275.167 19.5,272.5 Z"/></g>
<g><path style="opacity:0.259" fill="#e8e8e8" d="M 26.5,278.5 C 28.5529,278.402 30.2196,279.069 31.5,280.5C 29.4471,280.598 27.7804,279.931 26.5,278.5 Z"/></g>
<g><path style="opacity:0.471" fill="#c1c1c1" d="M 35.5,281.5 C 42.5071,281.834 49.5071,282.334 56.5,283C 58.4641,284.451 59.7974,286.284 60.5,288.5C 58.7041,287.207 57.0375,285.707 55.5,284C 48.6204,283.71 41.9537,282.877 35.5,281.5 Z"/></g>
<g><path style="opacity:1" fill="#959595" d="M 378.5,279.5 C 379.931,280.78 380.598,282.447 380.5,284.5C 378.787,283.365 378.12,281.698 378.5,279.5 Z"/></g>
<g><path style="opacity:0.835" fill="#bcbcbc" d="M 380.5,284.5 C 381.738,286.214 382.405,288.214 382.5,290.5C 380.926,288.898 380.259,286.898 380.5,284.5 Z"/></g>
<g><path style="opacity:0.859" fill="#c0c0c0" d="M 68.5,296.5 C 71.7642,298.094 74.4309,300.427 76.5,303.5C 73.2358,301.906 70.5691,299.573 68.5,296.5 Z"/></g>
<g><path style="opacity:0.329" fill="#c8c8c8" d="M 301.5,298.5 C 277.178,297.666 253.178,299.999 229.5,305.5C 253.077,298.472 277.077,296.139 301.5,298.5 Z"/></g>
<g><path style="opacity:0.804" fill="#c1c1c1" d="M 328.5,302.5 C 333.899,302.765 338.899,304.098 343.5,306.5C 338.272,305.611 333.272,304.278 328.5,302.5 Z"/></g>
<g><path style="opacity:0.314" fill="#dadada" d="M 76.5,303.5 C 78.7488,304.08 80.4154,305.413 81.5,307.5C 79.2512,306.92 77.5846,305.587 76.5,303.5 Z"/></g>
<g><path style="opacity:0.89" fill="#b0b1b1" d="M 344.5,306.5 C 346.898,306.259 348.898,306.926 350.5,308.5C 348.214,308.405 346.214,307.738 344.5,306.5 Z"/></g>
<g><path style="opacity:0.361" fill="#e0e0e0" d="M 81.5,307.5 C 83.0269,307.427 84.0269,308.094 84.5,309.5C 82.9731,309.573 81.9731,308.906 81.5,307.5 Z"/></g>
<g><path style="opacity:1" fill="#a7a7a7" d="M 350.5,308.5 C 353.01,308.054 355.01,308.72 356.5,310.5C 354.214,310.405 352.214,309.738 350.5,308.5 Z"/></g>
<g><path style="opacity:0.259" fill="#e0e0e0" d="M 225.5,306.5 C 221.105,308.435 216.438,309.769 211.5,310.5C 215.805,308.254 220.471,306.92 225.5,306.5 Z"/></g>
<g><path style="opacity:0.384" fill="#dbdbdb" d="M 84.5,309.5 C 86.0269,309.427 87.0269,310.094 87.5,311.5C 85.9731,311.573 84.9731,310.906 84.5,309.5 Z"/></g>
<g><path style="opacity:0.259" fill="#dddddd" d="M 211.5,310.5 C 208.495,312.277 205.162,313.277 201.5,313.5C 204.505,311.723 207.838,310.723 211.5,310.5 Z"/></g>
<g><path style="opacity:0.369" fill="#dcdcdc" d="M 87.5,311.5 C 89.0269,311.427 90.0269,312.094 90.5,313.5C 88.9731,313.573 87.9731,312.906 87.5,311.5 Z"/></g>
<g><path style="opacity:0.282" fill="#dedede" d="M 90.5,313.5 C 93.9922,314.41 96.9922,316.076 99.5,318.5C 96.0078,317.59 93.0078,315.924 90.5,313.5 Z"/></g>
<g><path style="opacity:0.259" fill="#dbdbdb" d="M 201.5,313.5 C 198.495,315.277 195.162,316.277 191.5,316.5C 194.505,314.723 197.838,313.723 201.5,313.5 Z"/></g>
<g><path style="opacity:0.282" fill="#e1e1e1" d="M 367.5,314.5 C 369.553,314.402 371.22,315.069 372.5,316.5C 370.447,316.598 368.78,315.931 367.5,314.5 Z"/></g>
<g><path style="opacity:0.259" fill="#d6d6d6" d="M 191.5,316.5 C 188.146,318.258 184.479,319.258 180.5,319.5C 183.854,317.742 187.521,316.742 191.5,316.5 Z"/></g>
<g><path style="opacity:0.267" fill="#e5e5e5" d="M 374.5,317.5 C 376.553,317.402 378.22,318.069 379.5,319.5C 377.447,319.598 375.78,318.931 374.5,317.5 Z"/></g>
<g><path style="opacity:1" fill="#a0a0a0" d="M 104.5,320.5 C 106.698,320.12 108.365,320.787 109.5,322.5C 107.447,322.598 105.78,321.931 104.5,320.5 Z"/></g>
<g><path style="opacity:0.259" fill="#d9d9d9" d="M 158.5,324.5 C 153.226,325.858 147.893,326.858 142.5,327.5C 139.5,327.5 136.5,327.5 133.5,327.5C 133.5,327.167 133.5,326.833 133.5,326.5C 141.844,325.954 150.178,325.287 158.5,324.5 Z"/></g>
</svg>
